<?xml version="1.0" encoding="UTF-8"?>
<svg width="34px" height="30px" viewBox="0 0 34 30" version="1.1" xmlns="http://www.w3.org/2000/svg" xmlns:xlink="http://www.w3.org/1999/xlink">
    <title>tools-settings</title>
    <g id="Page-1" stroke="none" stroke-width="1" fill="none" fill-rule="evenodd">
        <g id="Desktop---LP-Cargos-e-Salários" transform="translate(-549.000000, -928.000000)">
            <g id="Group-8" transform="translate(541.000000, 918.000000)">
                <g id="tools-settings" transform="translate(7.000000, 7.000000)">
                    <g id="Group" stroke-linecap="round" stroke-linejoin="round" transform="translate(1.965000, 4.215000)" stroke="#FFFFFF" stroke-width="1.5">
                        <line x1="20.535" y1="18.57" x2="11.535" y2="18.57" id="Path"></line>
                        <path d="M10.8465,18.129 C8.1825,16.2465 6.585,12.96 7.1475,9.342 C7.7565,5.4315 11.016,2.31 14.9475,1.8495 C20.4045,1.209 25.035,5.457 25.035,10.785 C25.035,13.8225 23.526,16.503 21.2205,18.132 C20.8065,18.4245 20.535,18.8775 20.535,19.3845 L20.535,23.535 C20.535,25.6065 18.8565,27.285 16.785,27.285 L15.285,27.285 C13.2135,27.285 11.535,25.6065 11.535,23.535 L11.535,19.3905 C11.535,18.879 11.262,18.423 10.8465,18.129 Z" id="Path"></path>
                        <line x1="28.035" y1="3.285" x2="29.82" y2="1.5" id="Path"></line>
                        <line x1="4.035" y1="18.285" x2="2.25" y2="20.07" id="Path"></line>
                        <line x1="5.535" y1="1.785" x2="3.75" y2="0" id="Path"></line>
                        <line x1="28.035" y1="18.285" x2="29.82" y2="20.07" id="Path"></line>
                        <line x1="29.535" y1="10.785" x2="32.07" y2="10.785" id="Path"></line>
                        <line x1="0" y1="10.785" x2="2.535" y2="10.785" id="Path"></line>
                        <line x1="11.535" y1="22.785" x2="20.34" y2="22.785" id="Path"></line>
                    </g>
                    <polygon id="Path" opacity="0" points="0 0 36 0 36 36 0 36"></polygon>
                </g>
            </g>
        </g>
    </g>
</svg>