<?xml version="1.0" encoding="UTF-8"?>
<svg width="108px" height="14px" viewBox="0 0 108 14" version="1.1" xmlns="http://www.w3.org/2000/svg" xmlns:xlink="http://www.w3.org/1999/xlink">
    <title>minhoca</title>
    <g id="final" stroke="none" stroke-width="1" fill="none" fill-rule="evenodd">
        <g id="Desktop-/-Home-A" transform="translate(-888.000000, -1150.000000)" fill="#940DFF">
            <g id="minhoca" transform="translate(888.000000, 1150.000000)">
                <path d="M4.18367347,5.1 C4.55555556,5.3 4.92743764,5.6 5.29931973,6 C5.85714286,6.6 6.32199546,7.3 6.97278912,8.2 C7.53061224,9.1 8.1814059,10.1 9.01814059,11 C9.66893424,11.7 10.3197279,12.3 11.2494331,12.7 C12.0861678,13.2 13.2018141,13.4 14.3174603,13.4 C15.4331066,13.4 16.4557823,13.1 17.3854875,12.7 C18.3151927,12.3 18.9659864,11.6 19.61678,11 C20.4535147,10.1 21.1043084,9.1 21.6621315,8.2 C22.2199546,7.3 22.7777778,6.5 23.3356009,6 C23.707483,5.6 24.0793651,5.3 24.4512472,5.1 C24.8231293,4.9 25.1950113,4.8 25.7528345,4.8 C26.3106576,4.8 26.6825397,4.9 27.0544218,5.1 C27.4263039,5.3 27.7981859,5.6 28.170068,6 C28.7278912,6.6 29.1927438,7.3 29.8435374,8.2 C30.4013605,9.1 31.0521542,10.1 31.8888889,11 C32.5396825,11.7 33.1904762,12.3 34.1201814,12.7 C34.9569161,13.2 36.0725624,13.4 37.1882086,13.4 C38.3038549,13.4 39.3265306,13.1 40.2562358,12.7 C41.185941,12.3 41.8367347,11.6 42.4875283,11 C43.324263,10.1 43.9750567,9.1 44.5328798,8.2 C45.0907029,7.3 45.6485261,6.5 46.2063492,6 C46.5782313,5.6 46.9501134,5.3 47.3219955,5.1 C47.414966,5 47.7868481,4.8 48.3446712,4.8 C48.9024943,4.8 49.2743764,4.9 49.6462585,5.1 C50.0181406,5.3 50.3900227,5.6 50.7619048,6 C51.3197279,6.6 51.7845805,7.3 52.4353741,8.2 C52.9931973,9.1 53.6439909,10.1 54.4807256,11 C55.1315193,11.7 55.7823129,12.3 56.7120181,12.7 C57.5487528,13.2 58.6643991,13.4 59.7800454,13.4 C60.8956916,13.4 61.9183673,13.1 62.8480726,12.7 C63.7777778,12.3 64.4285714,11.6 65.0793651,11 C65.9160998,10.1 66.5668934,9.1 67.1247166,8.2 C67.6825397,7.3 68.2403628,6.5 68.7981859,6 C69.170068,5.6 69.5419501,5.3 69.9138322,5.1 C70.2857143,4.9 70.6575964,4.8 71.2154195,4.8 C71.7732426,4.8 72.1451247,4.9 72.5170068,5.1 C72.8888889,5.3 73.260771,5.6 73.6326531,6 C74.1904762,6.6 74.6553288,7.3 75.3061224,8.2 C75.8639456,9.1 76.5147392,10.1 77.3514739,11 C78.0022676,11.7 78.6530612,12.3 79.5827664,12.7 C80.4195011,13.2 81.5351474,13.4 82.6507937,13.4 C83.7664399,13.4 84.7891156,13.1 85.7188209,12.7 C86.6485261,12.3 87.2993197,11.6 87.9501134,11 C88.7868481,10.1 89.4376417,9.1 89.9954649,8.2 C90.553288,7.3 91.1111111,6.5 91.6689342,6 C92.0408163,5.6 92.4126984,5.3 92.7845805,5.1 C93.1564626,4.9 93.5283447,4.8 94.0861678,4.8 C94.6439909,4.8 95.015873,4.9 95.3877551,5.1 C95.7596372,5.3 96.1315193,5.6 96.5034014,6 C97.0612245,6.6 97.5260771,7.3 98.1768707,8.2 C98.7346939,9.1 99.3854875,10.1 100.222222,11 C100.873016,11.7 101.52381,12.3 102.453515,12.7 C103.38322,13.2 104.405896,13.4 105.521542,13.4 C106.637188,13.4 107.566893,12.4 107.566893,11.2 C107.566893,10 106.637188,9 105.521542,9 C104.963719,9 104.591837,8.9 104.219955,8.7 C103.848073,8.5 103.47619,8.2 103.104308,7.8 C102.546485,7.2 102.081633,6.5 101.430839,5.6 C100.873016,4.7 100.222222,3.7 99.3854875,2.8 C98.7346939,2.1 98.0839002,1.5 97.154195,1.1 C96.2244898,0.6 95.2018141,0.4 94.0861678,0.4 C92.9705215,0.4 91.9478458,0.7 91.0181406,1.1 C90.0884354,1.5 89.4376417,2.2 88.7868481,2.8 C87.9501134,3.7 87.2993197,4.7 86.7414966,5.6 C86.1836735,6.5 85.6258503,7.3 85.0680272,7.8 C84.6961451,8.2 84.324263,8.5 83.952381,8.7 C83.5804989,8.9 83.2086168,9 82.6507937,9 C82.0929705,9 81.7210884,8.9 81.3492063,8.7 C80.9773243,8.5 80.6054422,8.2 80.2335601,7.8 C79.675737,7.2 79.2108844,6.5 78.5600907,5.6 C77.8163265,4.9 77.1655329,3.9 76.3287982,3 C75.6780045,2.3 75.0272109,1.7 74.0975057,1.3 C73.260771,0.8 72.1451247,0.6 71.0294785,0.6 C69.9138322,0.6 68.8911565,0.9 67.9614512,1.3 C67.031746,1.7 66.3809524,2.4 65.7301587,3 C64.893424,3.9 64.2426304,4.9 63.6848073,5.8 C63.2199546,6.6 62.6621315,7.4 62.1043084,8 C61.7324263,8.4 61.3605442,8.7 60.9886621,8.9 C60.61678,9.1 60.244898,9.2 59.6870748,9.2 C59.1292517,9.2 58.7573696,9.1 58.3854875,8.9 C58.0136054,8.7 57.6417234,8.4 57.2698413,8 C56.7120181,7.4 56.2471655,6.7 55.5963719,5.8 C55.0385488,4.9 54.3877551,3.9 53.5510204,3 C52.9931973,2.3 52.2494331,1.7 51.3197279,1.3 C50.4829932,0.8 49.3673469,0.6 48.2517007,0.6 C47.1360544,0.6 46.1133787,0.9 45.1836735,1.3 C44.2539683,1.7 43.6031746,2.4 42.952381,3 C42.1156463,3.9 41.4648526,4.9 40.9070295,5.8 C40.3492063,6.7 39.7913832,7.5 39.2335601,8 C38.861678,8.4 38.4897959,8.7 38.1179138,8.9 C37.7460317,9.1 37.3741497,9.2 36.8163265,9.2 C36.2585034,9.2 35.8866213,9.1 35.5147392,8.9 C35.3287982,8.7 34.9569161,8.4 34.585034,8 C34.0272109,7.4 33.5623583,6.7 32.9115646,5.8 C32.3537415,4.9 31.7029478,3.9 30.8662132,3 C30.2154195,2.3 29.5646259,1.7 28.6349206,1.3 C27.7052154,0.8 26.6825397,0.6 25.5668934,0.6 C24.4512472,0.6 23.4285714,0.9 22.4988662,1.3 C21.569161,1.7 20.9183673,2.4 20.2675737,3 C19.430839,3.9 18.7800454,4.9 18.2222222,5.8 C17.6643991,6.6 17.1995465,7.4 16.6417234,8 C16.2698413,8.4 15.8979592,8.7 15.5260771,8.9 C15.154195,9.1 14.7823129,9.2 14.2244898,9.2 C13.6666667,9.2 13.2947846,9.1 12.9229025,8.9 C12.5510204,8.7 12.1791383,8.4 11.8072562,8 C11.2494331,7.4 10.7845805,6.7 10.1337868,5.8 C9.57596372,4.9 8.92517007,3.9 8.08843537,3 C7.53061224,2.3 6.78684807,1.7 5.95011338,1.2 C5.02040816,0.8 3.99773243,0.5 2.88208617,0.5 C1.76643991,0.5 0.836734694,1.5 0.836734694,2.7 C0.836734694,3.9 1.76643991,4.9 2.88208617,4.9 C3.4399093,4.8 3.81179138,4.9 4.18367347,5.1 Z" id="Path"></path>
            </g>
        </g>
    </g>
</svg>