<?xml version="1.0" encoding="UTF-8"?>
<svg width="115px" height="13px" viewBox="0 0 115 13" version="1.1" xmlns="http://www.w3.org/2000/svg" xmlns:xlink="http://www.w3.org/1999/xlink">
    <title>minhoca</title>
    <g id="final" stroke="none" stroke-width="1" fill="none" fill-rule="evenodd">
        <g id="Desktop-/-Home-A" transform="translate(-80.000000, -297.000000)" fill="#FFC24B">
            <g id="Group-32" transform="translate(80.000000, 175.000000)">
                <g id="minhoca" transform="translate(0.000000, 122.000000)">
                    <path d="M3.6,4.7 C4,4.9 4.4,5.2 4.8,5.6 C5.4,6.2 5.9,6.9 6.6,7.8 C7.2,8.7 7.9,9.7 8.8,10.6 C9.5,11.3 10.2,11.9 11.2,12.3 C12.1,12.8 13.3,13 14.5,13 C15.7,13 16.8,12.7 17.8,12.3 C18.8,11.9 19.5,11.2 20.2,10.6 C21.1,9.7 21.8,8.7 22.4,7.8 C23,6.9 23.6,6.1 24.2,5.6 C24.6,5.2 25,4.9 25.4,4.7 C25.8,4.5 26.2,4.4 26.8,4.4 C27.4,4.4 27.8,4.5 28.2,4.7 C28.6,4.9 29,5.2 29.4,5.6 C30,6.2 30.5,6.9 31.2,7.8 C31.8,8.7 32.5,9.7 33.4,10.6 C34.1,11.3 34.8,11.9 35.8,12.3 C36.7,12.8 37.9,13 39.1,13 C40.3,13 41.4,12.7 42.4,12.3 C43.4,11.9 44.1,11.2 44.8,10.6 C45.7,9.7 46.4,8.7 47,7.8 C47.6,6.9 48.2,6.1 48.8,5.6 C49.2,5.2 49.6,4.9 50,4.7 C50.1,4.6 50.5,4.4 51.1,4.4 C51.7,4.4 52.1,4.5 52.5,4.7 C52.9,4.9 53.3,5.2 53.7,5.6 C54.3,6.2 54.8,6.9 55.5,7.8 C56.1,8.7 56.8,9.7 57.7,10.6 C58.4,11.3 59.1,11.9 60.1,12.3 C61,12.8 62.2,13 63.4,13 C64.6,13 65.7,12.7 66.7,12.3 C67.7,11.9 68.4,11.2 69.1,10.6 C70,9.7 70.7,8.7 71.3,7.8 C71.9,6.9 72.5,6.1 73.1,5.6 C73.5,5.2 73.9,4.9 74.3,4.7 C74.7,4.5 75.1,4.4 75.7,4.4 C76.3,4.4 76.7,4.5 77.1,4.7 C77.5,4.9 77.9,5.2 78.3,5.6 C78.9,6.2 79.4,6.9 80.1,7.8 C80.7,8.7 81.4,9.7 82.3,10.6 C83,11.3 83.7,11.9 84.7,12.3 C85.6,12.8 86.8,13 88,13 C89.2,13 90.3,12.7 91.3,12.3 C92.3,11.9 93,11.2 93.7,10.6 C94.6,9.7 95.3,8.7 95.9,7.8 C96.5,6.9 97.1,6.1 97.7,5.6 C98.1,5.2 98.5,4.9 98.9,4.7 C99.3,4.5 99.7,4.4 100.3,4.4 C100.9,4.4 101.3,4.5 101.7,4.7 C102.1,4.9 102.5,5.2 102.9,5.6 C103.5,6.2 104,6.9 104.7,7.8 C105.3,8.7 106,9.7 106.9,10.6 C107.6,11.3 108.3,11.9 109.3,12.3 C110.3,12.8 111.4,13 112.6,13 C113.8,13 114.8,12 114.8,10.8 C114.8,9.6 113.8,8.6 112.6,8.6 C112,8.6 111.6,8.5 111.2,8.3 C110.8,8.1 110.4,7.8 110,7.4 C109.4,6.8 108.9,6.1 108.2,5.2 C107.6,4.3 106.9,3.3 106,2.4 C105.3,1.7 104.6,1.1 103.6,0.7 C102.6,0.2 101.5,0 100.3,0 C99.1,0 98,0.3 97,0.7 C96,1.1 95.3,1.8 94.6,2.4 C93.7,3.3 93,4.3 92.4,5.2 C91.8,6.1 91.2,6.9 90.6,7.4 C90.2,7.8 89.8,8.1 89.4,8.3 C89,8.5 88.6,8.6 88,8.6 C87.4,8.6 87,8.5 86.6,8.3 C86.2,8.1 85.8,7.8 85.4,7.4 C84.8,6.8 84.3,6.1 83.6,5.2 C82.8,4.5 82.1,3.5 81.2,2.6 C80.5,1.9 79.8,1.3 78.8,0.9 C77.9,0.4 76.7,0.2 75.5,0.2 C74.3,0.2 73.2,0.5 72.2,0.9 C71.2,1.3 70.5,2 69.8,2.6 C68.9,3.5 68.2,4.5 67.6,5.4 C67.1,6.2 66.5,7 65.9,7.6 C65.5,8 65.1,8.3 64.7,8.5 C64.3,8.7 63.9,8.8 63.3,8.8 C62.7,8.8 62.3,8.7 61.9,8.5 C61.5,8.3 61.1,8 60.7,7.6 C60.1,7 59.6,6.3 58.9,5.4 C58.3,4.5 57.6,3.5 56.7,2.6 C56.1,1.9 55.3,1.3 54.3,0.9 C53.4,0.4 52.2,0.2 51,0.2 C49.8,0.2 48.7,0.5 47.7,0.9 C46.7,1.3 46,2 45.3,2.6 C44.4,3.5 43.7,4.5 43.1,5.4 C42.5,6.3 41.9,7.1 41.3,7.6 C40.9,8 40.5,8.3 40.1,8.5 C39.7,8.7 39.3,8.8 38.7,8.8 C38.1,8.8 37.7,8.7 37.3,8.5 C37.1,8.3 36.7,8 36.3,7.6 C35.7,7 35.2,6.3 34.5,5.4 C33.9,4.5 33.2,3.5 32.3,2.6 C31.6,1.9 30.9,1.3 29.9,0.9 C28.9,0.4 27.8,0.2 26.6,0.2 C25.4,0.2 24.3,0.5 23.3,0.9 C22.3,1.3 21.6,2 20.9,2.6 C20,3.5 19.3,4.5 18.7,5.4 C18.1,6.2 17.6,7 17,7.6 C16.6,8 16.2,8.3 15.8,8.5 C15.4,8.7 15,8.8 14.4,8.8 C13.8,8.8 13.4,8.7 13,8.5 C12.6,8.3 12.2,8 11.8,7.6 C11.2,7 10.7,6.3 10,5.4 C9.4,4.5 8.7,3.5 7.8,2.6 C7.2,1.9 6.4,1.3 5.5,0.8 C4.5,0.4 3.4,0.1 2.2,0.1 C1,0.1 7.10542736e-15,1.1 7.10542736e-15,2.3 C7.10542736e-15,3.5 1,4.5 2.2,4.5 C2.8,4.4 3.2,4.5 3.6,4.7 Z" id="Path"></path>
                </g>
            </g>
        </g>
    </g>
</svg>