<?xml version="1.0" encoding="utf-8"?>
<!-- Generator: Adobe Illustrator 25.2.0, SVG Export Plug-In . SVG Version: 6.00 Build 0)  -->
<svg version="1.1" id="Camada_1" xmlns="http://www.w3.org/2000/svg" xmlns:xlink="http://www.w3.org/1999/xlink" x="0px" y="0px"
	 viewBox="0 0 1920 609.9" style="enable-background:new 0 0 1920 609.9;" xml:space="preserve">
<style type="text/css">
	.st0{fill:#ffffff;}
</style>
<g>
	<path class="st0" d="M403,428.9c11.2-8.1,26.5-7.2,36.3,2.6l0,0c12.1,12.1,10.6,32.1-3.2,42.2c-34.6,25.3-77.2,40.3-123.4,40.3
		c-119.1,0-214.9-99.7-208.6-220.3C110,184.8,200,98,308.9,96c47.5-0.9,91.6,14.2,127.1,40.1c13.9,10.1,15.5,30.2,3.5,42.4l0,0
		c-9.7,9.7-24.9,11-35.9,2.9c-26.6-19.5-59.8-30.7-95.5-29.5c-81.3,2.6-147,69.5-148.2,150.8c-1.3,85.7,67.8,155.5,153.3,155.5
		C346.5,458.2,377.7,447.3,403,428.9z M312.8,578.9v0.2c0,16.4,14.3,29.3,30.6,27.6c60.7-6,116.1-30.1,161-66.6
		c12.9-10.5,14-29.7,2.2-41.4l0,0c-10.2-10.2-26.3-10.9-37.4-1.8c-36.4,29.7-81.6,49.3-131,54.4
		C323.8,552.6,312.8,564.5,312.8,578.9z M119.1,111.2L119.1,111.2c-11.7-11.7-31-10.6-41.4,2.2C35.1,165.6,9.6,232.3,9.6,304.9
		s25.5,139.3,68.1,191.5c10.5,12.9,29.7,14,41.4,2.2l0,0c10.2-10.2,10.9-26.3,1.8-37.4c-34.7-42.6-55.5-97-55.5-156.3
		s20.8-113.7,55.5-156.3C130,137.5,129.3,121.4,119.1,111.2z M312.8,30.9v0.2c0,14.4,11,26.2,25.3,27.6c49.4,5,94.5,24.6,131,54.4
		c11.1,9.1,27.2,8.4,37.4-1.8l0,0c11.7-11.7,10.6-31-2.2-41.4c-44.8-36.6-100.3-60.6-161-66.7C327.1,1.6,312.8,14.5,312.8,30.9z"/>
	<g>
		<path class="st0" d="M312.8,363.8c-33.8,0-60.9-28.4-58.7-62.7c1.9-28.9,25-52.6,54-54.8c11.2-0.9,21.7,1.4,30.9,5.9
			c10.7,5.2,23.6,3.2,32-5.3l0,0c13.6-13.6,9.6-36.4-7.6-44.8c-16.9-8.3-36.1-12.6-56.4-11.5c-58.8,3-106.3,51.2-108.5,110
			c-2.5,65.3,49.8,119.1,114.5,119.1c18.2,0,35.4-4.3,50.7-11.8c17.1-8.4,20.9-31.2,7.3-44.7l0,0c-8.5-8.5-21.6-10.4-32.4-5
			C330.8,361.7,322,363.8,312.8,363.8z"/>
		<path class="st0" d="M511.6,190.4c-30.8,0-57.9,11.5-80.5,34.3c-22.6,22.6-34.1,49.7-34.1,80.4s11.5,57.7,34.1,80.4
			c22.7,22.7,49.7,34.1,80.5,34.1s57.8-11.5,80.5-34.1c22.7-22.7,34.1-49.7,34.1-80.4s-11.5-57.8-34.1-80.5S542.4,190.4,511.6,190.4
			z M570.3,305c0,17.9-5.7,32.6-17.5,44.8c-11.7,12.2-25.1,18.1-41.2,18.1c-16,0-29.5-5.9-41.3-18.2c-11.9-12.3-17.6-26.9-17.6-44.8
			c0-17.8,5.7-32.6,17.6-44.8c11.8-12.3,25.2-18.2,41.3-18.2c16,0,29.5,5.9,41.2,18.1l0,0C564.6,272.5,570.3,287.2,570.3,305z"/>
		<path class="st0" d="M840.4,217.1c-6.1-6.5-13.1-11.9-20.6-15.9c-13-7.1-28-10.7-44.9-10.7c-7.7,0-15.4,1-23.1,3.1
			c-7.5,2-13.9,4.3-18.8,6.8c-4.9,2.5-9.5,5.2-13.8,8.3c-0.2,0.2-2.3,1.6-3.5,2.4c-4.5-9.5-14.1-16.1-25.2-16.1
			c-15.3,0-27.8,12.5-27.8,27.8v164.8c0,15.3,12.5,27.8,27.8,27.8c15.3,0,27.8-12.5,27.8-27.8l0,0v-91c0-17.4,4.4-31.1,13.1-40.5
			c8.6-9.4,20-14,34.8-14c12.5,0,22.6,4.3,30.9,12.9c8.4,8.7,12.5,19.5,12.5,32.9v99.6c0,15.3,12.5,27.8,27.8,27.8
			c15.3,0,27.8-12.5,27.8-27.8V280.4C864,254.4,855.7,233.2,840.4,217.1z"/>
		<path class="st0" d="M1000.3,335.8L950.7,212c-4.2-10.4-14.2-17.1-25.3-17.1l0,0c-19.4,0-32.6,19.6-25.2,37.6l64.7,159
			c5.8,14.5,19.9,23.9,35.5,23.9l0,0c15.6,0,29.6-9.4,35.5-23.9l64.7-159c7.3-17.9-5.9-37.6-25.2-37.6l0,0
			c-11.2,0-21.2,6.8-25.3,17.1L1000.3,335.8z"/>
		<g>
			<path class="st0" d="M1656.5,108.4c-7.9,0-14.6,2.7-19.9,8c-5.2,5.2-8,12-8,19.9s2.7,14.6,8,19.9c5.2,5.2,12,8,19.9,8
				c7.9,0,14.6-2.7,19.9-8l0,0c5.2-5.2,8-12,8-19.9s-2.7-14.6-8-19.9C1671,111.1,1664.4,108.4,1656.5,108.4z"/>
			<path class="st0" d="M1656.5,415.3L1656.5,415.3c15.4,0,27.9-12.5,27.9-27.9V222.8c0-15.4-12.5-27.9-27.9-27.9l0,0
				c-15.4,0-27.9,12.5-27.9,27.9v164.5C1628.5,402.7,1641,415.3,1656.5,415.3z"/>
		</g>
		<path class="st0" d="M1556.4,217.1c-6.1-6.5-13.1-11.9-20.6-15.9c-13-7.1-28-10.7-44.9-10.7c-7.7,0-15.4,1-23.1,3.1
			c-7.5,2-13.9,4.3-18.8,6.8c-4.9,2.5-9.5,5.2-13.8,8.3c-0.2,0.2-2.3,1.6-3.5,2.4c-4.5-9.5-14.1-16.1-25.2-16.1
			c-15.3,0-27.8,12.5-27.8,27.8v164.8c0,15.3,12.5,27.8,27.8,27.8c15.3,0,27.8-12.5,27.8-27.8l0,0v-91c0-17.4,4.4-31.1,13.1-40.5
			c8.6-9.4,20-14,34.8-14c12.5,0,22.6,4.3,30.9,12.9c8.4,8.7,12.5,19.5,12.5,32.9v99.6c0,15.3,12.5,27.8,27.8,27.8
			c15.3,0,27.8-12.5,27.8-27.8V280.4C1579.9,254.4,1571.6,233.2,1556.4,217.1z"/>
		<path class="st0" d="M1814.2,190.4c-31.5,0.7-54.6,14.4-69.2,26.6c-11,9.2-11.8,25.8-1.6,35.9l0,0c8.8,8.8,23,9.6,32.7,1.7
			c6.8-5.6,17.5-10.8,34-12.2c41.7-3.5,44.2,27,44.2,27l-70.3,12.2c-20.1,3.4-36.1,11.4-47.9,24c-11.9,12.7-17.9,28.6-17.9,47.2
			c0,17.6,7.7,33.4,23.1,46.8c15,13.3,34.2,20,56.8,20c7.7,0,15.4-1,23-3c7.4-2,13.8-4.2,18.8-6.7c0,0,0.1,0,0.1-0.1
			c6.1-3.1,11.8-7.1,16.8-11.8c4.2,10.1,14.2,17.2,25.8,17.2c15.4,0,27.9-12.5,27.9-27.9v-55.6v-32.5v-23.4v-1.2
			C1910.4,227,1871.7,189.2,1814.2,190.4z M1841.3,354.2c-8.8,9.3-20.8,13.8-36.8,13.8c-9.8,0-17.6-2.2-23.1-6.5
			c-5.1-4-7.6-8.3-7.6-13.3c0-5.8,1.8-10.5,5.4-14.3c3.9-4.1,8.9-6.5,15.3-7.7l60-9.6C1854,333,1849.5,345.5,1841.3,354.2z"/>
		<path class="st0" d="M1342.4,299.3v-0.7c0-30.8-10.4-56.8-30.9-77.3s-46.5-30.9-77.2-30.9c-30.7,0-57.4,11.1-79.3,33.1
			c-21.9,21.9-33.1,48.6-33.1,79.4c0,31.9,11.4,59.6,33.9,82.4c22.5,22.8,49.7,34.4,80.7,34.4c1.7,0,3.4,0,5.1-0.1
			c0.9,0,1.7-0.1,2.6-0.1c0.6,0,1.2-0.1,1.8-0.1c32.1-2.5,55.8-16.9,70.9-29.6c11.4-9.6,12.1-26.8,1.6-37.3l0,0
			c-9.4-9.4-24.5-10-34.5-1.4c-10,8.7-25.4,17.2-47.4,17.2c-44.7,0-57.3-41.6-57.3-41.6h133C1327.7,326.4,1340.8,314.7,1342.4,299.3
			z M1181.8,277.1c3.7-9.9,9.4-18.2,17-24.8c9.6-8.3,21.1-12.3,35.3-12.3c14.5,0,26.1,4.1,35.6,12.3c7.7,6.7,13,14.9,15.9,24.8
			H1181.8z"/>
	</g>
</g>
</svg>
